<svg id="fever" xmlns="http://www.w3.org/2000/svg" viewBox="0 0 1024 1024"><defs><style>.cls-1,.cls-7{fill:#57b168;}.cls-2{font-size:120.18px;fill:#00501b;font-family:Bellota-Regular, Bellota Text;}.cls-3{letter-spacing:-0.03em;}.cls-4{letter-spacing:-0.02em;}.cls-5{letter-spacing:-0.01em;}.cls-6{fill:none;}.cls-6,.cls-7{stroke:#57b168;stroke-miterlimit:10;stroke-width:8px;}</style></defs><title>fever</title><path class="cls-1" d="M799.85,707.9l-.55-4.12L673.24,579,562.4,385.29,328.79,148l-25.43-7.48H260.11L209,190.18v63.9L448.91,487.76,643.76,602.24c16,16.22,114.6,115.67,126.65,125.31,4.65,3.73,9.08,5.54,13.52,5.54a15.11,15.11,0,0,0,11.52-5.23C800.78,721.78,800.49,712.75,799.85,707.9Zm-29.29,2.46C758.71,700.88,647.3,588.29,647.3,588.29L457.67,476.88,228.92,254.06V201.91l42.67-41.48h35.56l20.14,5.93,224,227.56L659.15,582.36,780,702.07S782.41,719.85,770.56,710.36Z"/><text class="cls-2" transform="translate(339.54 794.38)"><tspan class="cls-3">F</tspan><tspan class="cls-4" x="69.46" y="0">e</tspan><tspan class="cls-3" x="129.8" y="0">v</tspan><tspan class="cls-5" x="185.44" y="0">e</tspan><tspan x="246.98" y="0">r</tspan></text><circle class="cls-1" cx="502.7" cy="428.29" r="18.96"/><polygon class="cls-6" points="287 254.06 323.74 217.32 456.48 347.69 417.37 389.18 287 254.06"/><polygon class="cls-7" points="319 287.25 357.24 250.22 323.74 217.32 287 252.88 319 287.25"/></svg>