<svg xmlns="http://www.w3.org/2000/svg" viewBox="0 0 1024 1024"><defs><style>.cls-1{fill:#57b168;}</style></defs><title>sorethroat-notext</title><g id="head"><path class="cls-1" d="M706.62,518l-26.26-41s1.82-91.37-10.41-119.89c0,0-65.18-173.14-250.54-138.51S238.67,422.37,238.67,422.37s8.69,81,23.89,103.81c16.79,25.21,48.89,85.56,48.89,85.56s14.25,20.37,9.16,96.75l-10.18,42.78s-2,14.26,10.18,6.11c0,0,23.43-17.31,19.35-129.35,0,0-11.79-48.75-40.74-81.48,0,0-44.81-50.92-38.7-134.44,0,0-6.11-91.66,97.78-152.77,0,0,205.73-101.85,291.28,103.88,0,0,11,15,10.19,57,0,0,0,65.18,6.11,69.26l36.67,53s16.29,16.29-18.34,26.48c0,0-16.29,6.11-6.11,20.37,0,0,0,18.33-6.11,18.33l3.72,22.76s-9.4,19-13.9,26.13c-3,4.73,15,66.28-79.45,36.67,0,0-59.07-20.37-55,69.25,0,0,16.29,8.15,18.33-6.11,0,0-6.11-61.11,57-36.66,0,0,55,8.14,73.34-28.52,0,0,6.11-10.19,6.11-42.78,0,0,12.22-16.29,6.11-26.48s4.85-24,4.85-24l1.26-20.77S751.43,573,706.62,518Z"/></g><g id="sorethroat"><path class="cls-1" d="M530.28,597.67,381.14,694.12a1.88,1.88,0,0,0,1,3.46H430.6a1.88,1.88,0,0,1,1.34,3.19l-59.73,61.37a1.88,1.88,0,0,0,2.33,2.92L525,672.84a1.89,1.89,0,0,0-1-3.49l-51.52-.83a1.88,1.88,0,0,1-1.34-3.17l61.53-64.8A1.88,1.88,0,0,0,530.28,597.67Z"/></g></svg>