<svg id="Design" xmlns="http://www.w3.org/2000/svg" viewBox="0 0 1200 1200"><defs><style>.cls-1{fill:#57b168;}.cls-2{fill:#f3f6fa;}.cls-3{fill:#3d3d3d;}</style></defs><title>3</title><path class="cls-1" d="M992.06,235.92h-42V194a6.7,6.7,0,0,0-6.7-6.7H919.09a6.7,6.7,0,0,0-6.7,6.7v42h-42a6.69,6.69,0,0,0-6.7,6.69v24.32a6.69,6.69,0,0,0,6.7,6.69h42v42a6.7,6.7,0,0,0,6.7,6.69H943.4a6.7,6.7,0,0,0,6.7-6.69v-42h42a6.69,6.69,0,0,0,6.7-6.69V242.61A6.69,6.69,0,0,0,992.06,235.92Z"/><path class="cls-1" d="M149.55,920.9H126.49V897.84a3.69,3.69,0,0,0-3.68-3.69H109.44a3.69,3.69,0,0,0-3.68,3.69V920.9H82.7A3.68,3.68,0,0,0,79,924.58v13.36a3.68,3.68,0,0,0,3.68,3.68h23.06v23.06a3.68,3.68,0,0,0,3.68,3.68h13.37a3.68,3.68,0,0,0,3.68-3.68V941.62h23.06a3.68,3.68,0,0,0,3.68-3.68V924.58A3.68,3.68,0,0,0,149.55,920.9Z"/><path class="cls-1" d="M1102.6,157.65h-21.8V135.84a3.48,3.48,0,0,0-3.48-3.48h-12.64a3.48,3.48,0,0,0-3.48,3.48v21.81h-21.81a3.48,3.48,0,0,0-3.48,3.48v12.63a3.48,3.48,0,0,0,3.48,3.49h21.81v21.8a3.48,3.48,0,0,0,3.48,3.48h12.64a3.48,3.48,0,0,0,3.48-3.48v-21.8h21.8a3.48,3.48,0,0,0,3.48-3.49V161.13A3.48,3.48,0,0,0,1102.6,157.65Z"/><path class="cls-1" d="M1116,278.47H1085V247.4a5,5,0,0,0-5-5h-18a5,5,0,0,0-5,5v31.07H1026a5,5,0,0,0-5,5v18a5,5,0,0,0,5,4.95H1057v31.07a5,5,0,0,0,5,5h18a5,5,0,0,0,5-5V306.38H1116a5,5,0,0,0,5-4.95v-18A5,5,0,0,0,1116,278.47Z"/><path class="cls-1" d="M1024.54,660.73a4.5,4.5,0,0,0-.92-.36,86.19,86.19,0,0,0,3.29-41.35,81.3,81.3,0,0,0-15.1-36.53c19.93-10.38,34.8-30.79,40.16-55.47,9.09-41.85-5.28-85.07-38.44-115.6-32.25-29.7-75.94-42.09-116.42-33.75,7.51-27.09-.57-58.85-21.18-81.94-18.72-21-46.91-35-79.37-39.52-19.65-2.73-48.39-2.91-73.74,11.71C699.56,281.34,685,305.09,685.06,329c0,.08,0,.15,0,.23V602.64h0V915.84a4,4,0,0,0,0,2.31V985c-1.18,19.94,13.65,49.94,30.66,61.92,19.45,13.7,45.23,20.77,73.43,20.77a187.08,187.08,0,0,0,48.63-6.65c34.64-9.36,68.76-38,93.6-78.69,14.81-24.22,21.14-50.8,17.82-74.86-.23-1.64-.51-3.26-.83-4.88A63.83,63.83,0,0,0,965,904.7c28.17,0,54.69-16.63,63.55-22.8,35.54-24.76,56.24-66.57,55.38-111.86S1060.86,684,1024.54,660.73Z"/><path class="cls-2" d="M612.63,938.79V872a4.22,4.22,0,0,0,0-2.31V556.51h0V283.11c0-.08,0-.14,0-.22.06-23.93-14.5-47.69-37.76-61.1-25.35-14.63-54.09-14.44-73.74-11.71-32.46,4.5-60.65,18.54-79.37,39.52-20.61,23.09-28.69,54.84-21.18,81.94-40.48-8.35-84.17,4-116.42,33.74C251,395.81,236.58,439,245.67,480.89,251,505.57,265.9,526,285.83,536.36a81.26,81.26,0,0,0-15.1,36.52A86.23,86.23,0,0,0,274,614.24a4,4,0,0,0-.92.36c-36.31,23.29-58.51,64.15-59.37,109.31s19.84,87.1,55.38,111.85c8.86,6.18,35.38,22.81,63.55,22.81a64.26,64.26,0,0,0,16.65-2.14c-.32,1.61-.6,3.23-.83,4.87-3.31,24.06,3,50.65,17.82,74.86,24.85,40.65,59,69.33,93.6,78.69a187.16,187.16,0,0,0,48.63,6.66c28.2,0,54-7.08,73.43-20.77,17-12,31.84-42,30.66-61.93Z"/><path class="cls-3" d="M636.33,897.44a4,4,0,0,0,0-2.31V581.93h0V308.54c0-.09,0-.15,0-.23.06-23.93-14.51-47.69-37.76-61.1-25.36-14.62-54.09-14.44-73.74-11.71C492.33,240,464.14,254,445.42,275c-20.61,23.09-28.69,54.85-21.18,81.94-40.48-8.35-84.18,4.05-116.42,33.75-33.16,30.53-47.53,73.75-38.44,115.6,5.36,24.68,20.23,45.09,40.16,55.47a81.19,81.19,0,0,0-15.1,36.53,86.32,86.32,0,0,0,3.28,41.35,3.92,3.92,0,0,0-.91.36c-36.32,23.3-58.51,64.16-59.37,109.31s19.84,87.1,55.38,111.86c8.86,6.17,35.38,22.8,63.55,22.8A63.94,63.94,0,0,0,373,881.85c-.32,1.61-.6,3.24-.83,4.87-3.32,24.07,3,50.65,17.81,74.87,24.85,40.64,59,69.33,93.61,78.69a187.08,187.08,0,0,0,48.63,6.65c28.2,0,54-7.08,73.43-20.77,17-12,31.83-42,30.66-61.92v-66.8ZM600.84,1019.3c-28.25,19.9-71.26,24.71-115,12.88-32.59-8.81-64.9-36.13-88.64-75-13.8-22.57-19.71-47.19-16.66-69.34,3.42-24.84,19-46.63,39.64-55.49a4,4,0,0,0,1.83-1.67,70.27,70.27,0,0,0,17.51,10.83,71.49,71.49,0,0,0,28,5.57,73.35,73.35,0,0,0,41-12.29,4.19,4.19,0,0,0-4.71-6.94,63.92,63.92,0,0,1-79.07-100,4.19,4.19,0,0,0-5.66-6.19c-17.69,16.18-26.5,41.91-22.46,65.53A73.26,73.26,0,0,0,416,825.08c-18.74,8.39-33.63,26.06-40.46,47.23-.07,0-.14,0-.21,0-31.35,11.64-67.39-10.86-77.69-18C264.37,831.15,245,792,245.83,749.49c.8-42.14,21.36-80.24,55-102.07.07.16.13.32.21.48,7.89,16.16,21.56,28.36,37.5,33.46a54.29,54.29,0,0,0,16.54,2.56c12.11,0,24-3.95,33-11.35a4.19,4.19,0,0,0-5.35-6.46c-10.89,9-27.23,11.87-41.62,7.27-13.57-4.35-25.72-15.25-32.51-29.16-6.31-12.92-8.4-28.76-5.88-44.6,2.85-18,11.47-33.72,23.64-43.26,13.55-10.61,32.05-13.32,46-6.74A4.19,4.19,0,0,0,376,542c-16.78-7.9-38.8-4.79-54.78,7.73a61.62,61.62,0,0,0-6,5.44c-18.62-8.91-32.63-27.69-37.62-50.67-8.45-38.91,5-79.16,35.93-107.65,31.6-29.1,74.84-40.52,114.06-30.56-11.44,15.18-13.13,37-3.39,53.58a4.19,4.19,0,1,0,7.23-4.25c-8.9-15.13-6-36.52,6.71-48.68s34.15-14.23,48.91-4.72a4.19,4.19,0,1,0,4.54-7.05c-17.52-11.29-41.8-9.38-57.5,4.19-.22-.07-.45-.12-.67-.18a4.09,4.09,0,0,0-.17-1.38c-8.33-25-1.08-55.33,18.46-77.23,17.39-19.49,43.77-32.56,74.26-36.8,18.34-2.54,45.1-2.76,68.4,10.68,21.07,12.15,34.56,34.67,33.55,56,0,.13.05.24.06.36V428.45c-20.41,4.9-40.93,3.64-57.94-3.64-19.15-8.2-33.58-24.05-38.59-42.37-5.26-19.29,1.09-41.05,15.45-52.91a4.19,4.19,0,1,0-5.34-6.46c-17.09,14.11-24.4,38.85-18.2,61.57,5.68,20.78,21.89,38.68,43.38,47.88a94.23,94.23,0,0,0,37.06,7.27A111.9,111.9,0,0,0,628,437V581.1c-9.2,21.84-35.38,37.93-58.75,35.95s-44.85-20.76-49.89-43.71a73.21,73.21,0,0,0,19.54-30.42c8.64-26.46.85-57.07-19.38-76.18a4.19,4.19,0,0,0-5.76,6.09c17.64,16.67,24.7,44.42,17.17,67.48s-29.6,41.3-53.68,44.35-50-9.12-63-29.59a4.2,4.2,0,0,0-7.08,4.51c13.38,21,37.67,33.95,62.4,33.95a69.61,69.61,0,0,0,8.76-.55,73.08,73.08,0,0,0,33.94-13.75c7.33,24.85,30.33,44,56.29,46.18,1.5.12,3,.19,4.51.19,20.5,0,42.09-11.43,55-28.13V884.66c-19.36-18.9-50.36-25.93-75.58-15.82-29,11.62-47.9,44.89-43,75.75a4.2,4.2,0,0,0,4.14,3.54,4.87,4.87,0,0,0,.65,0,4.2,4.2,0,0,0,3.49-4.8c-4.28-27.15,12.36-56.43,37.88-66.66,25-10,56.48-.86,72.46,20.8v66.8s0,.09,0,.14,0,.09,0,.14C629,979.84,616.68,1008.15,600.84,1019.3Z"/><path class="cls-3" d="M539,765.12c21.2,0,42.29-12.12,52.56-30.72,11.1-20.08,9.11-46.83-4.86-65a4.2,4.2,0,0,0-6.66,5.11c12,15.64,13.72,38.62,4.18,55.88s-29.9,28-49.53,26.19-37.65-16.2-43.83-34.92a4.19,4.19,0,1,0-8,2.62c7.18,21.8,28.16,38.51,51,40.65C535.55,765,537.25,765.12,539,765.12Z"/><path class="cls-3" d="M1003.83,640a4,4,0,0,0-.92-.36,86.19,86.19,0,0,0,3.29-41.35,81.3,81.3,0,0,0-15.1-36.53c19.93-10.38,34.8-30.79,40.16-55.47,9.09-41.85-5.28-85.07-38.44-115.6C960.57,361,916.88,348.61,876.4,357c7.51-27.09-.57-58.85-21.18-81.94-18.72-21-46.91-35-79.37-39.52-19.65-2.73-48.39-2.91-73.74,11.71-23.26,13.41-37.82,37.17-37.76,61.1,0,.08-.05.14-.05.23V581.93h0v313.2a4.22,4.22,0,0,0,0,2.31v66.8c-1.18,19.94,13.65,49.93,30.66,61.92,19.45,13.7,45.23,20.77,73.43,20.77a187.14,187.14,0,0,0,48.63-6.65c34.64-9.36,68.76-38,93.6-78.69,14.81-24.22,21.13-50.8,17.82-74.87-.23-1.63-.51-3.26-.83-4.87A63.83,63.83,0,0,0,944.27,884c28.17,0,54.69-16.63,63.55-22.8,35.54-24.76,56.24-66.57,55.38-111.86S1040.15,663.32,1003.83,640ZM1003,854.3c-10.3,7.18-46.35,29.69-77.69,18-.07,0-.14,0-.21,0-6.84-21.17-21.72-38.84-40.46-47.23a73.34,73.34,0,0,0,19.44-37.89c4-23.62-4.78-49.35-22.46-65.53a4.19,4.19,0,0,0-5.66,6.19,63.92,63.92,0,0,1-79.07,100,4.19,4.19,0,0,0-4.71,6.94,73.33,73.33,0,0,0,41,12.29,71.44,71.44,0,0,0,27.95-5.57,69.91,69.91,0,0,0,17.51-10.83,4.1,4.1,0,0,0,1.84,1.67c20.66,8.86,36.21,30.65,39.64,55.49,3.05,22.15-2.87,46.77-16.66,69.34-23.74,38.84-56.05,66.16-88.64,75-43.78,11.83-86.79,7-115-12.88-15.84-11.15-28.15-39.46-27.12-54.8,0,0,0-.1,0-.14a.7.7,0,0,0,0-.14v-66.8c16-21.66,47.43-30.82,72.46-20.8,25.52,10.23,42.15,39.51,37.87,66.66a4.2,4.2,0,0,0,3.49,4.8,4.89,4.89,0,0,0,.66,0,4.2,4.2,0,0,0,4.14-3.54c4.86-30.86-14-64.13-43-75.75-25.23-10.11-56.22-3.08-75.58,15.82V597.47c12.86,16.7,34.44,28.13,54.95,28.13,1.51,0,3-.07,4.51-.19,26-2.2,49-21.33,56.29-46.18A73.08,73.08,0,0,0,822.38,593a69.45,69.45,0,0,0,8.75.55c24.74,0,49-13,62.41-33.95a4.2,4.2,0,0,0-7.08-4.51c-13,20.47-39,32.63-63,29.59s-46.14-21.28-53.67-44.35-.47-50.81,17.16-67.48a4.19,4.19,0,1,0-5.76-6.09c-20.22,19.11-28,49.72-19.38,76.18a73.23,73.23,0,0,0,19.55,30.42c-5.05,22.95-26.47,41.73-49.89,43.71s-49.55-14.11-58.75-35.95V437a111.83,111.83,0,0,0,24.18,2.75,94.23,94.23,0,0,0,37.06-7.27c21.48-9.2,37.7-27.1,43.37-47.88,6.21-22.72-1.1-47.46-18.19-61.57a4.19,4.19,0,1,0-5.34,6.46c14.36,11.86,20.71,33.62,15.44,52.91-5,18.32-19.43,34.17-38.59,42.37-17,7.28-37.52,8.54-57.93,3.64V310.86c0-.12.06-.23.06-.36-1-21.35,12.47-43.87,33.55-56,23.29-13.44,50.05-13.22,68.39-10.68,30.5,4.24,56.87,17.31,74.27,36.8,19.54,21.9,26.78,52.21,18.46,77.23a3.85,3.85,0,0,0-.17,1.38c-.22.06-.45.11-.67.18-15.71-13.57-40-15.48-57.51-4.19a4.2,4.2,0,1,0,4.55,7.05c14.75-9.51,36.24-7.44,48.91,4.72s15.61,33.55,6.71,48.68a4.19,4.19,0,1,0,7.23,4.25c9.74-16.56,8-38.4-3.39-53.58,39.22-10,82.46,1.46,114.06,30.56,31,28.49,44.38,68.74,35.92,107.65-5,23-19,41.76-37.61,50.67a62.81,62.81,0,0,0-6-5.44c-16-12.52-38-15.63-54.79-7.73a4.19,4.19,0,0,0,3.57,7.59c14-6.58,32.5-3.87,46,6.74,12.17,9.54,20.79,25.3,23.64,43.26,2.52,15.84.43,31.68-5.88,44.6-6.79,13.91-18.95,24.81-32.52,29.16-14.39,4.6-30.72,1.75-41.61-7.27a4.19,4.19,0,0,0-5.35,6.46c8.93,7.4,20.87,11.35,33,11.35a54.29,54.29,0,0,0,16.54-2.56c15.94-5.1,29.61-17.3,37.5-33.46.08-.16.13-.32.21-.48,33.66,21.83,54.22,59.93,55,102.07C1055.62,792,1036.26,831.15,1003,854.3Z"/><path class="cls-3" d="M815.12,719a4.18,4.18,0,0,0-5.29,2.67c-6.18,18.72-24.2,33.08-43.83,34.92s-40-8.94-49.54-26.19-7.82-40.24,4.18-55.88a4.19,4.19,0,1,0-6.65-5.11c-14,18.21-16,45-4.87,65,10.28,18.6,31.37,30.72,52.57,30.72,1.7,0,3.4-.08,5.09-.23,22.85-2.14,43.83-18.85,51-40.65A4.18,4.18,0,0,0,815.12,719Z"/><path class="cls-1" d="M351.37,871.26h-42v-42a6.7,6.7,0,0,0-6.7-6.7H278.4a6.7,6.7,0,0,0-6.7,6.7v42h-42A6.7,6.7,0,0,0,223,878v24.31a6.7,6.7,0,0,0,6.7,6.7h42v42a6.7,6.7,0,0,0,6.7,6.7h24.31a6.7,6.7,0,0,0,6.7-6.7V909h42a6.7,6.7,0,0,0,6.7-6.7V878A6.7,6.7,0,0,0,351.37,871.26Z"/><path class="cls-1" d="M241,784.29H209.93V753.23a5,5,0,0,0-5-5H187a5,5,0,0,0-5,5v31.06H151a5,5,0,0,0-5,5v18a5,5,0,0,0,5,5H182v31a5,5,0,0,0,5,5h18a5,5,0,0,0,5-5v-31H241a5,5,0,0,0,5-5v-18A5,5,0,0,0,241,784.29Z"/></svg>