<svg xmlns="http://www.w3.org/2000/svg" viewBox="0 0 1024 1024"><defs><style>.cls-1{fill:#57b168;}</style></defs><title>cough-notext</title><g id="head"><path class="cls-1" d="M706.62,518l-26.26-41s1.82-91.37-10.41-119.89c0,0-65.18-173.14-250.54-138.51S238.67,422.37,238.67,422.37s8.69,81,23.89,103.81c16.79,25.21,48.89,85.56,48.89,85.56s14.25,20.37,9.16,96.75l-10.18,42.78s-2,14.26,10.18,6.11c0,0,23.43-17.31,19.35-129.35,0,0-11.79-48.75-40.74-81.48,0,0-44.81-50.92-38.7-134.44,0,0-6.11-91.66,97.78-152.77,0,0,205.73-101.85,291.28,103.88,0,0,11,15,10.19,57,0,0,0,65.18,6.11,69.26l36.67,53s16.29,16.29-18.34,26.48c0,0-16.29,6.11-6.11,20.37,0,0,0,18.33-6.11,18.33l3.72,22.76s-9.4,19-13.9,26.13c-3,4.73,15,66.28-79.45,36.67,0,0-59.07-20.37-55,69.25,0,0,16.29,8.15,18.33-6.11,0,0-6.11-61.11,57-36.66,0,0,55,8.14,73.34-28.52,0,0,6.11-10.19,6.11-42.78,0,0,12.22-16.29,6.11-26.48s4.85-24,4.85-24l1.26-20.77S751.43,573,706.62,518Z"/></g><g id="cough"><polygon class="cls-1" points="737.37 588.1 849.86 575.05 849.86 588.1 737.37 600.16 737.37 588.1"/><rect class="cls-1" x="723.31" y="615.22" width="109.48" height="11.05"/><polygon class="cls-1" points="742.82 639.74 738.77 651.18 845.08 668.23 850.14 656.71 742.82 639.74"/></g></svg>