<svg xmlns="http://www.w3.org/2000/svg" viewBox="0 0 1024 1024"><defs><style>.cls-1{fill:#6cba75;}.cls-1,.cls-2{stroke:#357c35;}.cls-1,.cls-2,.cls-3,.cls-4{stroke-linecap:round;stroke-miterlimit:10;stroke-width:5px;}.cls-2,.cls-4{fill:none;}.cls-3{fill:#ceead1;}.cls-3,.cls-4{stroke:#57b168;}</style></defs><title>meditation</title><g id="Layer_3" data-name="Layer 3"><path class="cls-1" d="M588.11,985.71s110.73-9.23,139.73-4c0,0,181.92-8.92,151.6-101.35,0,0-27.61,7.71-42.15-19.29,0,0-58.61-2.17-122.92,29.57,0,0,12.66,11.69-6.71,19.08,0,0-33-8.31-40.71-1.12,0,0-31.38,29.59-74.88,31.58Z"/><path class="cls-1" d="M408.83,888.16l4,80.41h2.63S158.37,1020,136,911.89c0,0-8.44-24.81.4-30.2s21.35,9.77,45.59-26.08h0S374.56,871,408.83,888.16Z"/><path class="cls-2" d="M432.18,467.13s5.65,74.34,74.2,77,76.54-77,76.54-77"/><path class="cls-1" d="M373.24,601.91s-11.2,66.77,32.3,81.27c0,0,21.09,75.14,18.45,106.78,0,0-50.17,88.91-52.77,88.61L418.34,888,515,896.73l14.5,2.64s12.82-38.62,56.5-12.72h0s23.91,7.44,30.5,6.13h0s19.16-15.23,26.72-14.21h0s-58.35-75.43-51.76-115l19.77-79.09s36.38-13.27,34-75.18,5.54-39.51,5.54-39.51l-6.6-34.27L627,507.86l-6.72-29.8-37.36-10.93-151-.14-39.54,7.91L371.26,525l-3.95,29,5.93,47.92"/></g><g id="skin"><path class="cls-3" d="M458.27,91.3s-81.73,26.37-64.6,150.28c0,0-27.68,0-9.22,56.68,0,0,15.81,44.82,27.68,23.73l1.32,1.32s88.32,229.37,191.14,0c0,0,14.5,17.13,30.32-26.37,0,0,14.5-56.68-10.55-55.36,0,0,23.73-127.87-76.45-152.92"/><path class="cls-3" d="M410.15,888.16c0,43.5,2.34,68.3,5.27,80.41,0,0,137.1-34.27,150.28-25,0,0,75.14-5.28,96.23-31.64,0,0,18.46-15.82,42.18-1.32,0,0,27.69-4,6.59-23.73,0,0-34.27-34.27-94.91,5.28,0,0-21.09,2.63-42.18-11.87,0,0-31.64-14.5-44.82,18.46Z"/><path class="cls-3" d="M425.31,970.55c51.41,31.64,162.8,15.16,162.8,15.16l4-42.18H564.38l-39.54,1.32Z"/><path class="cls-3" d="M617.11,476.88s-9.23,44.82,2,75.8l15.82,31.63s43.5,113.37,42.18,146.33c0,0,14.5,34.27,152.91,118.64,0,0,13.19,23.72,22.41,29,0,0,35.59,9.22,60.64-13.19V858.5s36.91-29,0-13.18c0,0-16.17-60.57-38.23-21.09-3,5.38-3.27,12.93-6.59,22.41l-21.09-9.23S740.36,709.54,721.91,709.54c0,0-22.41-52.72-22.41-79.09,0,0-19.77-129.18-47.46-143.68,0,0-21.09-13.19-34.27-10.55L580.86,467,533.4,463l4.35-46.45S509.68,438,475.4,413L483.31,463,433.22,467S344.9,469.63,337,540.81l-19.77,92.28s-13.18,67.23-22.41,72.5c0,0-64.6,55.36-129.19,131.82,0,0-17.13,11.87-19.77,10.55,0,0-5.27-42.19-26.37-35.59,0,0-14.5,4-15.81,31.63,0,0-34.28-9.23,0,11.87l-1.32,7.91s15.82,23.72,59.32,14.5a82.53,82.53,0,0,0,22.41-26.37s145-97.55,152.91-122.59c0,0,26.36-118.64,42.18-145,0,0,11.87-10.54,17.14-58l-.25-51.83s33.21-10.12,35.84-7.49c1.76,1.77,5.27,81.73,79.77,77.33C584.08,540,580.86,467,580.86,467"/><line class="cls-4" x1="104.1" y1="838.78" x2="103.67" y2="855.87"/><line class="cls-4" x1="911.73" y1="842.68" x2="913.05" y2="858.5"/><path class="cls-1" d="M393.67,241.58l11.87,3.95S396,146.82,507,142.71c106.78-4,106.78,100.19,106.78,100.19l10.54-1.32s21.09-131.82-76.45-152.92c-22-4.76-89.64,2.64-89.64,2.64S377.86,112.39,393.67,241.58Z"/><path class="cls-1" d="M547.91,88.66s33-54-43.51-65.91c0,0-73.82,9.23-35.59,65.91Z"/></g></svg>