<svg xmlns="http://www.w3.org/2000/svg" viewBox="0 0 1024 1024"><defs><style>.cls-1{fill:#4dba79;}.cls-2{fill:#afafaf;}.cls-3{fill:#7dd8a2;}.cls-4{fill:#d3d3d3;}.cls-5{fill:#d4e8db;}</style></defs><title>mindpositivity</title><g id="doc1"><path class="cls-1" d="M833.34,334.61,826,328.52c-1.83-1.52-6.78-13.27-6-15.52l3-7c.24-.73,6.49.58,7,0,3.23-3.69,13.4-10.21,16-5,2.49,5,16.69,3.07,21.45,2.28a5.7,5.7,0,0,1,3.11.34C876.51,306,897.15,315,892,321c-4.49,5.23-3.94,13.26-3.38,17a5.69,5.69,0,0,1-.92,4c-3.36,5-12.67,17.4-20.7,15-9.32-2.8-24.73-20.37-30.83-21.12A5.38,5.38,0,0,1,833.34,334.61Z"/><polygon class="cls-2" points="901 588 901 654 934 769 920 774 853 639 842 771 827 771 807 629 804 575 901 588"/><polygon class="cls-3" points="868.5 369.5 849.5 371.5 807.5 551.5 803.5 574.5 815 581 869 584 856 485 867 419 868.5 369.5"/><path class="cls-4" d="M853,366l-14,1-2,7-33,31-42-28-3,5-6,10,45,52,25-17s-35,136-36,145l17,3,31.72-142.34L850,372l4.79-1.3Z"/><polygon points="827 771 818 779 826 787 842 779 842 771 827 771"/><polygon points="920 774 912 783 921 790 935 778 934 769 920 774"/><path class="cls-5" d="M852.57,371l-.57-8s-4-3-8-3c0,0-4,2-9-24,0,0,6-2,8-4s15-4,15-4,18-1,17,8c0,0,3,24-8,21l2,13Z"/><path class="cls-1" d="M753,371s-79-119-215-80c0,0-118,31-122,136,0,0,10,65-44,105,0,0-20,23,9,35,0,0,14,11,14,16,0,0,0,16-7,22-.83-2.86-5.87-.9,12,17l-7,7a48.77,48.77,0,0,0,4,11s15,9,4,38c0,0-21,57,61,42,0,0,63-22,62,18,0,0,8,55,17,48H723s8,3,3-11c0,0-56-113,5-173C731,602,827,495,753,371ZM689,580s-18,20-19,35c0,0-21,34-52-22,0,0-8-32,0-38,0,0,6-60-84-54,0,0-57,0-76-18,0,0-34-32-6-72s35-51,35-51,24-24,37-20l28-13s0-11,39-1c0,0,15-1,22-6s29,8,29,8,43,4,45,13c0,0,21,17,20,22l22,23s31,64,23,95S725,565,689,580Z"/><path class="cls-4" d="M880,366l-12,1-1,52-5.06,33.4L818,447l-62-20-6,18,84,37,22,3,1,105,57,1S945,434,880,366Z"/><polygon class="cls-5" points="756 427 750 420 728 433 737 444 750 445 756 427"/></g><g id="doc2"><path class="cls-3" d="M145,379l2,4h11l1-5,14,6,22,53,7,97,10,95-50,5-50-2-10-64,23-122,6-55S143,376,145,379Z"/><path class="cls-5" d="M147,383l-2-4v-1l1-4s-4,1-11-12c0,0-28-44,32-32,0,0,10,2,7,14,0,0,4,28-16,32l1,2-1,5Z"/><path class="cls-4" d="M158,377l9,2,32,16,35,23-2,14-16,6-9-6s19,63,19,78,8,62,8,62l7,26s7,27-14,29l-16,3s-23-49-21-56l-2-50-4-92S173,384,158,377Z"/><path class="cls-1" d="M375,299s-42-19-70,22c0,0-25-49-87-17,0,0-83,69,54,175l31,22S502,377,375,299ZM348,404H317v33H294V405H261V381h32l-1-35h24v35h32Z"/><path class="cls-4" d="M145,378s-34,5-40,28L82,567s1,33-18,50c0,0,23,20,46,16l3-1,14-78,5-98,49,29,67-16-1-25-59,8-54-39S131,389,145,378Z"/><path class="cls-1" d="M130,377s-21,4-24-2,1-27,6-26,3-22,3-22,9-15,19-9l12-12c1-1,21-13,24,15,0,0,19,5,11,31,0,0-3,9,4,16,0,0,2,12-2,13s-13.15-.09-13.15-.09L166,376v-7s11-28,1-33-39-11-32,10v16S126,370,130,377Z"/><polygon class="cls-2" points="117.94 632.66 122 661 114 757 127 757 153 665 158 632 162 634 175 727 179 763 190 763 205 629 155 593 117.94 632.66"/><polygon points="114 760 124 761 140 776 140 786 130 785 108 771 114 760"/><polygon points="180 770 192 768 208 778 206 787 177 781 180 770"/><polygon class="cls-5" points="247.33 453.7 257 446 259 450 267 451 268 460 261 466 247.33 463.51 247.33 453.7"/></g></svg>