<svg id="shortbreath" xmlns="http://www.w3.org/2000/svg" viewBox="0 0 1024 1024"><defs><style>.cls-1{fill:#57b168;}.cls-2{font-size:101.4px;fill:#00501b;font-family:Bellota-Regular, Bellota Text;}.cls-3{letter-spacing:-0.03em;}.cls-4{letter-spacing:-0.01em;}.cls-5{letter-spacing:-0.03em;}.cls-6{letter-spacing:0em;}.cls-7{letter-spacing:-0.02em;}.cls-8{letter-spacing:-0.02em;}.cls-9{letter-spacing:0em;}</style></defs><title>Untitled-1</title><path class="cls-1" d="M676.38,400.24l-26.15-40.86s1.82-91-10.35-119.36c0,0-64.9-172.39-249.46-137.91S210.48,305,210.48,305s8.65,80.66,23.78,103.36c16.72,25.09,48.68,85.18,48.68,85.18s14.19,20.28,9.12,96.33l-10.14,42.59s-2,14.2,10.14,6.09c0,0,23.32-17.24,19.27-128.79,0,0-11.74-48.53-40.56-81.12,0,0-44.62-50.7-38.54-133.85,0,0-6.08-91.27,97.35-152.11,0,0,204.84-101.4,290,103.43,0,0,11,14.91,10.14,56.79,0,0,0,64.9,6.08,69l36.51,52.73s16.22,16.22-18.26,26.36c0,0-16.22,6.08-6.08,20.28,0,0,0,18.25-6.08,18.25l3.7,22.67s-9.36,19-13.84,26c-3,4.7,15,66-79.1,36.5,0,0-58.81-20.28-54.76,69,0,0,16.23,8.11,18.25-6.09,0,0-6.08-60.84,56.79-36.5,0,0,54.76,8.11,73-28.39,0,0,6.09-10.14,6.09-42.59,0,0,12.16-16.23,6.08-26.37S663,479.73,663,479.73l1.25-20.68S721,455,676.38,400.24Z"/><rect class="cls-1" x="704.78" y="479.33" width="111.54" height="14.2"/><rect class="cls-1" x="727.09" y="505.7" width="111.54" height="14.2"/><rect class="cls-1" x="692.61" y="536.12" width="111.54" height="14.2"/><path class="cls-1" d="M968.43,505.7c-6.09-71-69-66.93-69-66.93-56.78-73-115.6,6.09-115.6,6.09L790,453c58.81-75,105.46-2,105.46-2,44.61-4.06,58.81,54.76,58.81,54.76,4.06,42.59-56.79,56.79-56.79,56.79C846.74,663.89,794,568.57,794,568.57l-10.14,10.14c69,95.32,125.74-8.11,125.74-8.11C972.48,554.37,968.43,505.7,968.43,505.7Z"/><text class="cls-2" transform="translate(151.92 756.58)">S<tspan class="cls-3" x="56.68" y="0">h</tspan><tspan class="cls-4" x="113.77" y="0">o</tspan><tspan x="174.51" y="0">rt</tspan><tspan class="cls-5" x="247.42" y="0">n</tspan><tspan class="cls-6" x="306.13" y="0">ess Of</tspan><tspan x="146.07" y="121.68">B</tspan><tspan class="cls-7" x="211.47" y="121.68">r</tspan><tspan class="cls-8" x="244.83" y="121.68">e</tspan><tspan class="cls-9" x="295.74" y="121.68">ath</tspan></text></svg>