<svg xmlns="http://www.w3.org/2000/svg" viewBox="0 0 1024 1024"><defs><style>.cls-1{fill:#57b168;}.cls-2{font-size:101.4px;fill:#00501b;font-family:Bellota-Regular, Bellota;}.cls-3{letter-spacing:-0.01em;}.cls-4{letter-spacing:-0.02em;}.cls-5{letter-spacing:-0.02em;}.cls-6{letter-spacing:0em;}</style></defs><title>sorethroat</title><g id="head"><path class="cls-1" d="M676.38,400.24l-26.15-40.86s1.82-91-10.35-119.36c0,0-64.9-172.39-249.46-137.91S210.48,305,210.48,305s8.65,80.66,23.78,103.36c16.72,25.09,48.68,85.18,48.68,85.18s14.19,20.28,9.12,96.33l-10.14,42.59s-2,14.2,10.14,6.09c0,0,23.32-17.24,19.27-128.79,0,0-11.74-48.53-40.56-81.12,0,0-44.62-50.7-38.54-133.85,0,0-6.08-91.27,97.35-152.11,0,0,204.84-101.4,290,103.43,0,0,11,14.91,10.14,56.79,0,0,0,64.9,6.08,69l36.51,52.73s16.22,16.22-18.26,26.36c0,0-16.22,6.08-6.08,20.28,0,0,0,18.25-6.08,18.25l3.7,22.67s-9.36,19-13.84,26c-3,4.7,15,66-79.1,36.5,0,0-58.81-20.28-54.76,69,0,0,16.23,8.11,18.25-6.09,0,0-6.08-60.84,56.79-36.5,0,0,54.76,8.11,73-28.39,0,0,6.09-10.14,6.09-42.59,0,0,12.16-16.23,6.08-26.37S663,479.73,663,479.73l1.25-20.68S721,455,676.38,400.24Z"/></g><g id="sorethroat"><path class="cls-1" d="M500.81,479.53l-148.48,96a1.87,1.87,0,0,0,1,3.44h48.23a1.88,1.88,0,0,1,1.34,3.18l-59.47,61.1a1.87,1.87,0,0,0,2.32,2.9l149.75-91.82a1.87,1.87,0,0,0-.95-3.46l-51.3-.83a1.87,1.87,0,0,1-1.32-3.16l61.25-64.52A1.87,1.87,0,0,0,500.81,479.53Z"/><text class="cls-2" transform="translate(159.18 755.58)">S<tspan class="cls-3" x="56.68" y="0">o</tspan><tspan class="cls-4" x="117.42" y="0">r</tspan><tspan x="150.79" y="0">e T</tspan><tspan class="cls-5" x="296.7" y="0">hr</tspan><tspan class="cls-6" x="387.66" y="0">oat</tspan></text></g></svg>