<svg id="Design" xmlns="http://www.w3.org/2000/svg" viewBox="0 0 1200 1200"><defs><style>.cls-1{fill:#7c8c9c;}.cls-2{fill:#57b168;}</style></defs><title>4</title><path class="cls-1" d="M944.82,587a325.78,325.78,0,0,1-17,50.85c-19,44.35-47.7,84-82.94,114.61-31.53,27.41-50.54,46.35-78.25,77.94-49.39,56.32-61.52,141.74-30.38,209.73l.73,1.53c0,.11.09.21.15.32-102.07,33.73-215.46,40.75-320.49,19.84v-27.45c0-.08,0-.16,0-.24-1.23-24.87-5.61-49-12.67-69.8-11.83-34.82-30.91-60.72-56.72-77-28.39-17.9-36.44-19.64-58-24.3-6.05-1.31-12.92-2.79-21.72-4.94-4-1-8.07-1.92-12.12-2.86-16.4-3.79-33.35-7.71-48.48-15-20.73-9.94-35-25.51-39.26-42.72-4.36-17.76,3.34-36.92,10.79-55.44,1.13-2.81,2.24-5.59,3.31-8.34a32.39,32.39,0,0,0-3.05-29,59.21,59.21,0,0,0-4.27-5.55,37.33,37.33,0,0,1-4.33-5.86,16.36,16.36,0,0,1-.23-14.8c2.24-4.43,8.46-8.76,13.59-9.45a4.93,4.93,0,0,0-.15-9.79A14.24,14.24,0,0,1,172.52,652c-1.94-3.63-2.91-8.47-.49-10.5,8.44-7,20-16.72,23.44-30.33A28.41,28.41,0,0,0,195,595a4.89,4.89,0,0,0-2-2.7c-9.44-6.31-19.21-12.84-25.93-21.79-5.46-7.26-9.9-18.64-6-28.81,3.1-8.08,10.74-13.9,19.66-20.14,6.73-4.71,13.79-9.21,20.62-13.56,19.11-12.18,38.88-24.77,53.62-43.29,11.89-14.93,18.38-32.92,24.65-50.33,2.51-6.94,5.1-14.12,8-20.92,14.34-33.89,37.85-63.28,60.57-91.71,24.94-31.19,72.38-61,86.32-69.42a310.82,310.82,0,0,1,49.44-24.46c-2.85-1.61-4.35-5.3-4-8.87a317.59,317.59,0,0,0-50.55,24.89c-14.29,8.61-63,39.23-88.93,71.7-23.14,28.95-47.07,58.89-61.94,94-3,7-5.62,14.35-8.17,21.42-6.28,17.42-12.21,33.87-23.09,47.54-13.72,17.22-31.93,28.83-51.21,41.11-6.92,4.41-14.07,9-21,13.79-8.37,5.85-18.78,13.13-23.21,24.7s-1.65,26.3,7.33,38.25c7.33,9.75,17.53,16.83,26.79,23a17.8,17.8,0,0,1-.05,9.36c-2.47,9.73-10.61,17.16-20.21,25.19-5.87,4.92-6.62,13.82-1.89,22.7a23.5,23.5,0,0,0,6.38,7.53,27.79,27.79,0,0,0-9.11,9.91,26.14,26.14,0,0,0,.37,24,46.78,46.78,0,0,0,5.43,7.48,50.07,50.07,0,0,1,3.58,4.6,22.41,22.41,0,0,1,2.11,20c-1.05,2.71-2.16,5.45-3.27,8.22-7.65,19-16.33,40.63-11.21,61.47,4.92,20.08,21.17,38,44.57,49.25,16.11,7.72,33.6,11.77,50.52,15.68,4,.93,8,1.86,12,2.83,8.93,2.19,16.16,3.75,22,5,20.85,4.51,27.87,6,54.79,23,22.34,14.08,60.43,50.84,64.8,138.82v21.44l-.91,13.72,4.19.87a635.24,635.24,0,0,0,129.09,13.22,640,640,0,0,0,206.52-34.26l5.36-1.83-4.86-9.59C715.39,973.17,726.63,890.92,774,836.88c27.38-31.21,46.16-49.92,77.31-77,36.35-31.6,65.93-72.46,85.53-118.16a335.6,335.6,0,0,0,17.78-53.44C951.38,587.75,948.11,587.31,944.82,587Z"/><path class="cls-2" d="M649,226.72H601.25V179a7.63,7.63,0,0,0-7.62-7.63H566a7.63,7.63,0,0,0-7.62,7.63v47.74H510.6a7.62,7.62,0,0,0-7.62,7.62V262a7.62,7.62,0,0,0,7.62,7.62h47.74v47.74A7.63,7.63,0,0,0,566,325h27.67a7.63,7.63,0,0,0,7.62-7.63V269.62H649a7.62,7.62,0,0,0,7.62-7.62V234.34A7.62,7.62,0,0,0,649,226.72Z"/><path class="cls-2" d="M672.21,446.83H594.73V369.34A12.37,12.37,0,0,0,582.36,357h-44.9a12.37,12.37,0,0,0-12.38,12.37v77.49H447.59a12.37,12.37,0,0,0-12.37,12.37v44.9a12.37,12.37,0,0,0,12.37,12.37h77.49V594a12.37,12.37,0,0,0,12.38,12.37h44.9A12.37,12.37,0,0,0,594.73,594V516.47h77.48a12.37,12.37,0,0,0,12.38-12.37V459.2A12.37,12.37,0,0,0,672.21,446.83Z"/><path class="cls-2" d="M1041.39,433.29l-60.13-5,4.94-60.14a9.63,9.63,0,0,0-8.81-10.39l-34.84-2.87a9.65,9.65,0,0,0-10.4,8.82l-4.94,60.13L867.07,419a9.63,9.63,0,0,0-10.39,8.81l-2.87,34.84A9.64,9.64,0,0,0,862.62,473l60.14,4.95-5,60.14a9.63,9.63,0,0,0,8.81,10.39l34.85,2.87a9.64,9.64,0,0,0,10.39-8.81l4.95-60.14,60.13,4.95a9.64,9.64,0,0,0,10.4-8.81l2.86-34.85A9.63,9.63,0,0,0,1041.39,433.29Z"/><path class="cls-2" d="M832.64,479.64H792.12V439.12a6.48,6.48,0,0,0-6.47-6.48H762.17a6.48,6.48,0,0,0-6.47,6.48v40.52H715.18a6.47,6.47,0,0,0-6.47,6.47v23.48a6.47,6.47,0,0,0,6.47,6.46H755.7v40.53a6.47,6.47,0,0,0,6.47,6.47h23.48a6.47,6.47,0,0,0,6.47-6.47V516.05h40.52a6.46,6.46,0,0,0,6.47-6.46V486.11A6.46,6.46,0,0,0,832.64,479.64Z"/><path class="cls-2" d="M720.91,331.61H690.53V301.23a4.85,4.85,0,0,0-4.85-4.85h-17.6a4.85,4.85,0,0,0-4.85,4.85v30.38H632.85a4.85,4.85,0,0,0-4.85,4.85v17.6a4.85,4.85,0,0,0,4.85,4.85h30.38v30.38a4.85,4.85,0,0,0,4.85,4.85h17.6a4.85,4.85,0,0,0,4.85-4.85V358.91h30.38a4.85,4.85,0,0,0,4.85-4.85v-17.6A4.85,4.85,0,0,0,720.91,331.61Z"/><path class="cls-2" d="M757.43,146.06H746.26V134.89a1.79,1.79,0,0,0-1.79-1.78H738a1.78,1.78,0,0,0-1.78,1.78v11.17H725.05a1.79,1.79,0,0,0-1.79,1.78v6.48a1.79,1.79,0,0,0,1.79,1.78h11.17v11.17a1.78,1.78,0,0,0,1.78,1.78h6.47a1.79,1.79,0,0,0,1.79-1.78V156.1h11.17a1.78,1.78,0,0,0,1.78-1.78v-6.48A1.78,1.78,0,0,0,757.43,146.06Z"/><path class="cls-2" d="M810.63,129.23H799.46V118.06a1.78,1.78,0,0,0-1.79-1.78H791.2a1.78,1.78,0,0,0-1.78,1.78v11.17H778.25a1.78,1.78,0,0,0-1.78,1.78v6.47a1.78,1.78,0,0,0,1.78,1.79h11.17v11.17a1.78,1.78,0,0,0,1.78,1.78h6.47a1.79,1.79,0,0,0,1.79-1.78V139.27h11.17a1.79,1.79,0,0,0,1.78-1.79V131A1.78,1.78,0,0,0,810.63,129.23Z"/><path class="cls-2" d="M709.9,211.9H698.73V200.73A1.78,1.78,0,0,0,697,199h-6.47a1.79,1.79,0,0,0-1.79,1.78V211.9H677.53a1.79,1.79,0,0,0-1.79,1.79v6.47a1.79,1.79,0,0,0,1.79,1.78h11.16v11.17a1.78,1.78,0,0,0,1.79,1.78H697a1.78,1.78,0,0,0,1.78-1.78V221.94H709.9a1.79,1.79,0,0,0,1.79-1.78v-6.47A1.79,1.79,0,0,0,709.9,211.9Z"/><path class="cls-2" d="M873.27,243.15H862.1V232a1.78,1.78,0,0,0-1.78-1.78h-6.47a1.78,1.78,0,0,0-1.78,1.78v11.17H840.9a1.79,1.79,0,0,0-1.79,1.78v6.48a1.79,1.79,0,0,0,1.79,1.78h11.17v11.17a1.78,1.78,0,0,0,1.78,1.78h6.47a1.78,1.78,0,0,0,1.78-1.78V253.19h11.17a1.79,1.79,0,0,0,1.79-1.78v-6.48A1.79,1.79,0,0,0,873.27,243.15Z"/><path class="cls-2" d="M855.3,146.06H844.13V134.89a1.78,1.78,0,0,0-1.78-1.78h-6.47a1.79,1.79,0,0,0-1.79,1.78v11.17H822.92a1.78,1.78,0,0,0-1.78,1.78v6.48a1.78,1.78,0,0,0,1.78,1.78h11.17v11.17a1.79,1.79,0,0,0,1.79,1.78h6.47a1.78,1.78,0,0,0,1.78-1.78V156.1H855.3a1.79,1.79,0,0,0,1.79-1.78v-6.48A1.79,1.79,0,0,0,855.3,146.06Z"/><path class="cls-2" d="M727.87,427.63H716.71V416.46a1.79,1.79,0,0,0-1.79-1.79h-6.47a1.78,1.78,0,0,0-1.78,1.79v11.17H695.5a1.78,1.78,0,0,0-1.79,1.78v6.47a1.79,1.79,0,0,0,1.79,1.78h11.17v11.17a1.78,1.78,0,0,0,1.78,1.79h6.47a1.79,1.79,0,0,0,1.79-1.79V437.66h11.16a1.79,1.79,0,0,0,1.79-1.78v-6.47A1.78,1.78,0,0,0,727.87,427.63Z"/><path class="cls-2" d="M855.3,407H844.13V395.85a1.78,1.78,0,0,0-1.78-1.78h-6.47a1.79,1.79,0,0,0-1.79,1.78V407H822.92a1.79,1.79,0,0,0-1.78,1.79v6.47a1.78,1.78,0,0,0,1.78,1.78h11.17v11.17a1.78,1.78,0,0,0,1.79,1.78h6.47a1.78,1.78,0,0,0,1.78-1.78V417.06H855.3a1.79,1.79,0,0,0,1.79-1.78v-6.47A1.79,1.79,0,0,0,855.3,407Z"/><path class="cls-2" d="M988.8,129.23H977.63V118.06a1.78,1.78,0,0,0-1.78-1.78h-6.47a1.78,1.78,0,0,0-1.79,1.78v11.17H956.42a1.78,1.78,0,0,0-1.78,1.78v6.47a1.79,1.79,0,0,0,1.78,1.79h11.17v11.17a1.79,1.79,0,0,0,1.79,1.78h6.47a1.78,1.78,0,0,0,1.78-1.78V139.27H988.8a1.78,1.78,0,0,0,1.78-1.79V131A1.78,1.78,0,0,0,988.8,129.23Z"/><path class="cls-2" d="M757.43,193.93H746.26V182.76a1.79,1.79,0,0,0-1.79-1.78H738a1.78,1.78,0,0,0-1.78,1.78v11.17H725.05a1.79,1.79,0,0,0-1.79,1.78v6.48a1.79,1.79,0,0,0,1.79,1.78h11.17v11.17a1.78,1.78,0,0,0,1.78,1.78h6.47a1.79,1.79,0,0,0,1.79-1.78V204h11.17a1.78,1.78,0,0,0,1.78-1.78v-6.48A1.78,1.78,0,0,0,757.43,193.93Z"/><path class="cls-2" d="M947.7,156.83H936.53V145.66a1.79,1.79,0,0,0-1.79-1.79h-6.47a1.79,1.79,0,0,0-1.78,1.79v11.17H915.32a1.79,1.79,0,0,0-1.79,1.78v6.47a1.79,1.79,0,0,0,1.79,1.79h11.17V178a1.78,1.78,0,0,0,1.78,1.78h6.47a1.79,1.79,0,0,0,1.79-1.78V166.87H947.7a1.79,1.79,0,0,0,1.78-1.79v-6.47A1.78,1.78,0,0,0,947.7,156.83Z"/><path class="cls-2" d="M907.07,129.23H895.9V118.06a1.78,1.78,0,0,0-1.78-1.78h-6.47a1.78,1.78,0,0,0-1.79,1.78v11.17H874.69a1.78,1.78,0,0,0-1.78,1.78v6.47a1.79,1.79,0,0,0,1.78,1.79h11.17v11.17a1.79,1.79,0,0,0,1.79,1.78h6.47a1.78,1.78,0,0,0,1.78-1.78V139.27h11.17a1.79,1.79,0,0,0,1.79-1.79V131A1.79,1.79,0,0,0,907.07,129.23Z"/><path class="cls-2" d="M724.9,261.12H713.73V250a1.78,1.78,0,0,0-1.78-1.78h-6.48a1.78,1.78,0,0,0-1.78,1.78v11.17H692.52a1.78,1.78,0,0,0-1.78,1.78v6.48a1.78,1.78,0,0,0,1.78,1.78h11.17v11.17a1.78,1.78,0,0,0,1.78,1.78H712a1.78,1.78,0,0,0,1.78-1.78V271.16H724.9a1.78,1.78,0,0,0,1.78-1.78V262.9A1.78,1.78,0,0,0,724.9,261.12Z"/><path class="cls-2" d="M988.8,176H977.63V164.79a1.78,1.78,0,0,0-1.78-1.78h-6.47a1.79,1.79,0,0,0-1.79,1.78V176H956.42a1.78,1.78,0,0,0-1.78,1.78v6.47a1.79,1.79,0,0,0,1.78,1.79h11.17v11.17a1.79,1.79,0,0,0,1.79,1.78h6.47a1.78,1.78,0,0,0,1.78-1.78V186H988.8a1.78,1.78,0,0,0,1.78-1.79v-6.47A1.78,1.78,0,0,0,988.8,176Z"/><path class="cls-2" d="M827.86,232.46H804.8V209.4a3.68,3.68,0,0,0-3.68-3.68H787.76a3.69,3.69,0,0,0-3.69,3.68v23.06H761a3.69,3.69,0,0,0-3.69,3.68V249.5a3.69,3.69,0,0,0,3.69,3.69h23.05v23.06a3.69,3.69,0,0,0,3.69,3.68h13.36a3.68,3.68,0,0,0,3.68-3.68V253.19h23.06a3.69,3.69,0,0,0,3.68-3.69V236.14A3.68,3.68,0,0,0,827.86,232.46Z"/><path class="cls-2" d="M924.31,188.59H901.25V165.53a3.68,3.68,0,0,0-3.69-3.68H884.2a3.68,3.68,0,0,0-3.68,3.68v23.06H857.46a3.68,3.68,0,0,0-3.68,3.68v13.36a3.68,3.68,0,0,0,3.68,3.68h23.06v23.06a3.68,3.68,0,0,0,3.68,3.68h13.36a3.68,3.68,0,0,0,3.69-3.68V209.31h23.06a3.68,3.68,0,0,0,3.68-3.68V192.27A3.68,3.68,0,0,0,924.31,188.59Z"/><path class="cls-2" d="M811.76,346.6H788.7V323.54a3.68,3.68,0,0,0-3.68-3.68H771.66a3.68,3.68,0,0,0-3.68,3.68V346.6H744.92a3.69,3.69,0,0,0-3.68,3.69v13.36a3.68,3.68,0,0,0,3.68,3.68H768v23.06a3.68,3.68,0,0,0,3.68,3.68H785a3.68,3.68,0,0,0,3.68-3.68V367.33h23.06a3.69,3.69,0,0,0,3.69-3.68V350.29A3.69,3.69,0,0,0,811.76,346.6Z"/><path class="cls-2" d="M1025.17,286h-23.06V263a3.69,3.69,0,0,0-3.68-3.69H985.06a3.69,3.69,0,0,0-3.68,3.69V286H958.32a3.68,3.68,0,0,0-3.68,3.68v13.36a3.68,3.68,0,0,0,3.68,3.68h23.06V329.8a3.68,3.68,0,0,0,3.68,3.68h13.37a3.68,3.68,0,0,0,3.68-3.68V306.74h23.06a3.68,3.68,0,0,0,3.68-3.68V289.7A3.68,3.68,0,0,0,1025.17,286Z"/><path class="cls-2" d="M690,161H667V137.93a3.68,3.68,0,0,0-3.68-3.68H649.93a3.68,3.68,0,0,0-3.68,3.68V161H623.19a3.68,3.68,0,0,0-3.68,3.68V178a3.68,3.68,0,0,0,3.68,3.69h23.06v23.06a3.68,3.68,0,0,0,3.68,3.68h13.36a3.68,3.68,0,0,0,3.68-3.68V181.72H690a3.68,3.68,0,0,0,3.68-3.69V164.67A3.68,3.68,0,0,0,690,161Z"/><path class="cls-2" d="M988.06,219.84H965V196.78a3.69,3.69,0,0,0-3.68-3.69H948a3.68,3.68,0,0,0-3.68,3.69v23.06H921.22a3.67,3.67,0,0,0-3.68,3.68v13.36a3.68,3.68,0,0,0,3.68,3.68h23.06v23.06A3.68,3.68,0,0,0,948,267.3h13.36a3.68,3.68,0,0,0,3.68-3.68V240.56h23.06a3.68,3.68,0,0,0,3.68-3.68V223.52A3.67,3.67,0,0,0,988.06,219.84Z"/><path class="cls-2" d="M926.55,316H895.48V284.89a5,5,0,0,0-5-5h-18a5,5,0,0,0-5,5V316H836.5a5,5,0,0,0-5,5v18a5,5,0,0,0,5,5h31.06v31.06a5,5,0,0,0,5,5h18a5,5,0,0,0,5-5V343.87h31.07a5,5,0,0,0,5-5v-18A5,5,0,0,0,926.55,316Z"/></svg>